<?xml version="1.0" encoding="utf-8"?>
<!-- Svg Vector Icons : http://www.onlinewebfonts.com/icon -->
<!DOCTYPE svg PUBLIC "-//W3C//DTD SVG 1.1//EN" "http://www.w3.org/Graphics/SVG/1.1/DTD/svg11.dtd">
<svg version="1.1" xmlns="http://www.w3.org/2000/svg" xmlns:xlink="http://www.w3.org/1999/xlink" x="0px" y="0px" viewBox="0 0 1000 1000" enable-background="new 0 0 1000 1000" xml:space="preserve">
<metadata> Svg Vector Icons : http://www.onlinewebfonts.com/icon </metadata>
<g><g><g><path d="M977,550c17.3,17.3,17.3,44.2,0,61.5L844.3,744.3c-7.7,7.7-19.2,13.5-30.8,13.5c-11.5,0-23.1-5.8-30.8-13.5L650,611.6c-17.3-17.3-17.3-44.2,0-61.5c17.3-17.3,42.3-17.3,59.6,0l61.5,61.5V328.8H392.3c-23.1,0-42.3-21.2-42.3-44.2c0-23.1,19.2-42.3,42.3-42.3h421.2c23.1,0,42.3,19.2,42.3,42.3v327l61.5-61.5C934.7,532.7,959.7,532.7,977,550z"/><path d="M607.7,671.2c23.1,0,42.3,21.2,42.3,44.2c0,23.1-19.2,42.3-42.3,42.3H186.5c-23.1,0-42.3-19.2-42.3-42.3v-327L82.6,450c-17.3,17.3-42.3,17.3-59.6,0c-17.3-17.3-17.3-44.2,0-61.6l132.7-134.6c7.7-7.7,19.2-11.5,30.8-11.5s23.1,3.8,30.8,11.5L350,388.4c17.3,17.3,17.3,44.2,0,61.6c-7.7,7.7-19.2,11.5-30.8,11.5c-11.5,0-21.2-3.8-28.9-11.5l-61.6-61.6v282.7H607.7z"/></g></g><g></g><g></g><g></g><g></g><g></g><g></g><g></g><g></g><g></g><g></g><g></g><g></g><g></g><g></g><g></g></g>
</svg>